<svg width="112" height="41" viewBox="0 0 112 41" fill="none" xmlns="http://www.w3.org/2000/svg">
<path d="M68.0006 9.14305H61.954C57.6734 14.8021 54.0807 18.5141 52.7459 19.4884C53.8385 19.9899 56.4123 23.7959 59.3331 31.0572H65.4495C62.5538 23.7959 59.9625 19.93 59.119 19.2058C60.2245 18.2907 63.534 14.8021 68.0006 9.14305ZM47.0797 9.14305C47.6849 10.1506 48.9285 10.3506 48.722 11.9612L45.9766 31.0572H51.0452L54.1968 9.14305H47.0797ZM82.1665 15.5293C81.9516 17.0361 81.4262 17.6013 80.4491 17.6013H74.4617L75.0585 13.4498H81.0489C82.0192 13.4498 82.3783 14.0203 82.1665 15.5293ZM81.2463 24.33C81.0056 26.03 80.3633 26.7519 79.2897 26.7519H73.1437L73.868 21.7239H79.8895C81.0208 21.7239 81.5052 22.5368 81.2463 24.33ZM87.7803 14.396C88.2738 10.9688 87.4348 9.14305 83.054 9.14305H68.5563C69.1691 10.1506 70.4104 10.3514 70.2054 11.9612L67.4517 31.0572H79.9928C83.5582 31.0572 86.009 29.5481 86.6445 25.1481C87.1342 21.724 86.3393 19.5217 84.2984 19.5217C86.1882 19.5217 87.3422 17.4445 87.7803 14.396ZM105.604 19.9762C106.467 14.0021 105.744 13.3059 101.302 13.3059C96.86 13.3059 95.9406 14.0028 95.0819 19.9762C94.2042 26.0443 94.8982 26.9231 99.3405 26.9231C103.786 26.9231 104.731 26.0443 105.604 19.9762ZM111.032 19.9119C109.734 28.9352 105.707 31.5466 98.6784 31.5466C91.6175 31.5466 88.3717 28.9352 89.6685 19.9119C90.9516 11.0082 94.9126 8.6582 101.97 8.6582C109 8.6582 112.311 11.0082 111.032 19.9119Z" fill="#03060B"/>
<path d="M38.0521 20.783C37.1918 17.5664 33.8464 14.5949 31.2849 13.1035C30.9907 12.9304 30.6887 12.7709 30.3798 12.6256C28.6917 11.8348 27.2285 11.3639 25.9537 11.1486C25.2414 11.0287 24.2129 10.9157 23.5656 11.1853C22.5385 11.6107 22.9139 12.9853 23.1647 13.8873C23.2912 14.3468 23.4132 14.6851 23.7773 15.2991C24.1418 15.9148 25.0772 16.6505 26.7266 17.3485C26.3858 17.538 25.5857 17.7708 25.0306 17.9152C25.663 18.8675 26.4003 19.7428 27.2272 20.4635C28.9096 21.9296 29.5388 21.9712 29.5388 21.9712C29.5388 21.9712 29.7501 20.9852 29.6596 19.994C29.6205 19.559 29.4247 19.215 29.1906 19.0211C28.4212 18.3857 27.86 17.7235 27.3177 16.8942C26.2343 15.2391 24.9213 12.4558 27.2101 12.1258C29.6254 14.0584 31.0337 17.4618 31.0934 19.9568C31.2085 24.7077 28.2522 28.8656 25.4575 30.9041C16.7269 37.2764 8.24219 33.8857 8.24219 33.8857C8.24219 33.8857 11.0782 37.9434 16.2895 39.2908C22.2662 40.8374 30.2586 38.9407 32.1469 32.3141C32.6238 33.1693 32.262 35.4786 32.262 35.4786C32.262 35.4786 35.74 32.8721 37.4087 29.0892C38.4952 26.6192 38.8759 23.8644 38.0521 20.783Z" fill="#03060B"/>
<path d="M8.88029 13.0866C8.70199 14.5715 8.61109 16.4712 9.17846 18.9793C9.34095 17.5841 9.9171 15.922 10.7901 14.5855C12.7645 11.5557 16.3655 9.44199 19.8971 8.99254C24.5313 8.40437 29.2714 9.5037 33.0599 12.2323C35.6509 14.0988 37.5256 16.855 37.5256 16.855C37.5256 16.855 38.0069 14.0839 36.6886 11.1409C34.885 7.11686 31.0385 3.75804 27.056 3.604C25.7947 3.55454 24.3311 3.85913 23.6504 3.99961C23.6794 3.35192 26.2589 2.18957 26.2589 2.18957C26.2589 2.18957 19.6542 -0.374943 14.4306 3.17512C12.5111 4.47969 9.75198 7.10242 8.94133 12.6914C8.91805 12.817 8.89741 12.9461 8.88029 13.0866Z" fill="#03060B"/>
<path d="M21.9042 28.7114C23.4202 26.1784 23.4623 23.3189 22.5871 20.4459C21.9657 18.5636 20.8876 18.196 18.8228 17.3956C19.2343 17.1483 20.127 16.8639 20.7019 16.6976C19.0727 14.8551 16.642 13.5129 14.3462 13.8875C13.4534 14.0337 12.6058 14.2958 11.9309 15.4289C13.3067 15.2118 15.3659 15.8858 16.4611 16.7597C20.6193 20.0791 20.3115 26.0821 16.4189 28.9018C15.3698 29.6611 13.6176 30.3394 12.3138 30.3753C10.3948 30.43 8.79672 30.1381 7.45733 29.6287C7.68481 29.6672 10.433 30.1136 13.3616 29.2059C11.9392 28.1259 10.8128 26.5635 10.35 25.8808C8.98862 23.8664 4.4514 16.3269 9.65919 6.16992C7.8552 6.57823 6.11268 7.3384 4.53396 9.17207C2.46077 11.5817 1.90218 14.5125 2.07081 16.4424C2.25086 18.5019 2.99301 19.9356 3.14232 20.2822C2.21441 20.0997 0.943971 18.0323 0.943971 18.0323C0.943971 18.0323 0.712104 19.5378 0.712104 20.2113C0.712104 20.2113 -0.0678138 30.1179 9.68115 32.8794C14.2447 34.1717 19.5535 32.6356 21.9042 28.7114Z" fill="#03060B"/>
</svg>
